<mxfile host="app.diagrams.net" agent="Mozilla/5.0 (Windows NT 10.0; Win64; x64) AppleWebKit/537.36 (KHTML, like Gecko) Chrome/134.0.0.0 Safari/537.36" version="26.1.3">
  <diagram name="Page-1" id="D4laDxtTlfIjhpExN0gS">
    <mxGraphModel dx="926" dy="493" grid="1" gridSize="10" guides="1" tooltips="1" connect="1" arrows="1" fold="1" page="1" pageScale="1" pageWidth="1600" pageHeight="900" background="#FFF4C3" math="0" shadow="0">
      <root>
        <mxCell id="0" />
        <mxCell id="1" parent="0" />
        <mxCell id="2lYjjqfwjOvLe_Hyz_DH-11" style="edgeStyle=orthogonalEdgeStyle;rounded=0;orthogonalLoop=1;jettySize=auto;html=1;exitX=1;exitY=0.5;exitDx=0;exitDy=0;entryX=0;entryY=0.5;entryDx=0;entryDy=0;" edge="1" parent="1" source="2lYjjqfwjOvLe_Hyz_DH-1" target="2lYjjqfwjOvLe_Hyz_DH-10">
          <mxGeometry relative="1" as="geometry" />
        </mxCell>
        <mxCell id="2lYjjqfwjOvLe_Hyz_DH-1" value="" style="shape=step;perimeter=stepPerimeter;whiteSpace=wrap;html=1;fixedSize=1;size=10;fillColor=#CC6600;" vertex="1" parent="1">
          <mxGeometry x="200" y="530" width="40" height="20" as="geometry" />
        </mxCell>
        <mxCell id="2lYjjqfwjOvLe_Hyz_DH-19" style="edgeStyle=orthogonalEdgeStyle;rounded=0;orthogonalLoop=1;jettySize=auto;html=1;exitX=1;exitY=0.25;exitDx=0;exitDy=0;entryX=0;entryY=0.5;entryDx=0;entryDy=0;" edge="1" parent="1" source="2lYjjqfwjOvLe_Hyz_DH-2" target="2lYjjqfwjOvLe_Hyz_DH-20">
          <mxGeometry relative="1" as="geometry">
            <mxPoint x="660" y="400" as="targetPoint" />
          </mxGeometry>
        </mxCell>
        <mxCell id="2lYjjqfwjOvLe_Hyz_DH-2" value="FF1" style="whiteSpace=wrap;html=1;aspect=fixed;" vertex="1" parent="1">
          <mxGeometry x="510" y="330" width="80" height="80" as="geometry" />
        </mxCell>
        <mxCell id="2lYjjqfwjOvLe_Hyz_DH-3" value="FF2" style="whiteSpace=wrap;html=1;aspect=fixed;" vertex="1" parent="1">
          <mxGeometry x="730" y="330" width="80" height="80" as="geometry" />
        </mxCell>
        <mxCell id="2lYjjqfwjOvLe_Hyz_DH-7" style="edgeStyle=orthogonalEdgeStyle;rounded=0;orthogonalLoop=1;jettySize=auto;html=1;exitX=1;exitY=0.5;exitDx=0;exitDy=0;entryX=0.089;entryY=0.504;entryDx=0;entryDy=0;entryPerimeter=0;" edge="1" parent="1" source="2lYjjqfwjOvLe_Hyz_DH-5" target="2lYjjqfwjOvLe_Hyz_DH-6">
          <mxGeometry relative="1" as="geometry" />
        </mxCell>
        <mxCell id="2lYjjqfwjOvLe_Hyz_DH-5" value="" style="rhombus;whiteSpace=wrap;html=1;fillColor=#00CC00;strokeColor=#82b366;" vertex="1" parent="1">
          <mxGeometry x="30" y="525" width="30" height="30" as="geometry" />
        </mxCell>
        <mxCell id="2lYjjqfwjOvLe_Hyz_DH-8" style="edgeStyle=orthogonalEdgeStyle;rounded=0;orthogonalLoop=1;jettySize=auto;html=1;exitX=0.875;exitY=0.5;exitDx=0;exitDy=0;exitPerimeter=0;entryX=0;entryY=0.5;entryDx=0;entryDy=0;" edge="1" parent="1" source="2lYjjqfwjOvLe_Hyz_DH-6" target="2lYjjqfwjOvLe_Hyz_DH-1">
          <mxGeometry relative="1" as="geometry" />
        </mxCell>
        <mxCell id="2lYjjqfwjOvLe_Hyz_DH-6" value="" style="ellipse;shape=cloud;whiteSpace=wrap;html=1;" vertex="1" parent="1">
          <mxGeometry x="100" y="520" width="40" height="40" as="geometry" />
        </mxCell>
        <mxCell id="2lYjjqfwjOvLe_Hyz_DH-13" style="edgeStyle=orthogonalEdgeStyle;rounded=0;orthogonalLoop=1;jettySize=auto;html=1;exitX=1;exitY=0.5;exitDx=0;exitDy=0;entryX=0;entryY=0.5;entryDx=0;entryDy=0;" edge="1" parent="1" source="2lYjjqfwjOvLe_Hyz_DH-10" target="2lYjjqfwjOvLe_Hyz_DH-12">
          <mxGeometry relative="1" as="geometry">
            <Array as="points">
              <mxPoint x="380" y="540" />
              <mxPoint x="380" y="400" />
            </Array>
          </mxGeometry>
        </mxCell>
        <mxCell id="2lYjjqfwjOvLe_Hyz_DH-17" style="edgeStyle=orthogonalEdgeStyle;rounded=0;orthogonalLoop=1;jettySize=auto;html=1;exitX=1;exitY=0.5;exitDx=0;exitDy=0;entryX=0;entryY=0.5;entryDx=0;entryDy=0;" edge="1" parent="1" source="2lYjjqfwjOvLe_Hyz_DH-10" target="2lYjjqfwjOvLe_Hyz_DH-16">
          <mxGeometry relative="1" as="geometry" />
        </mxCell>
        <mxCell id="2lYjjqfwjOvLe_Hyz_DH-10" value="" style="triangle;whiteSpace=wrap;html=1;" vertex="1" parent="1">
          <mxGeometry x="300" y="520" width="40" height="40" as="geometry" />
        </mxCell>
        <mxCell id="2lYjjqfwjOvLe_Hyz_DH-12" value="" style="triangle;whiteSpace=wrap;html=1;" vertex="1" parent="1">
          <mxGeometry x="420" y="380" width="40" height="40" as="geometry" />
        </mxCell>
        <mxCell id="2lYjjqfwjOvLe_Hyz_DH-15" style="edgeStyle=orthogonalEdgeStyle;rounded=0;orthogonalLoop=1;jettySize=auto;html=1;exitX=1;exitY=0.5;exitDx=0;exitDy=0;entryX=0.008;entryY=0.88;entryDx=0;entryDy=0;entryPerimeter=0;" edge="1" parent="1" source="2lYjjqfwjOvLe_Hyz_DH-12" target="2lYjjqfwjOvLe_Hyz_DH-2">
          <mxGeometry relative="1" as="geometry" />
        </mxCell>
        <mxCell id="2lYjjqfwjOvLe_Hyz_DH-16" value="" style="triangle;whiteSpace=wrap;html=1;" vertex="1" parent="1">
          <mxGeometry x="520" y="520" width="40" height="40" as="geometry" />
        </mxCell>
        <mxCell id="2lYjjqfwjOvLe_Hyz_DH-18" style="edgeStyle=orthogonalEdgeStyle;rounded=0;orthogonalLoop=1;jettySize=auto;html=1;exitX=1;exitY=0.5;exitDx=0;exitDy=0;entryX=-0.016;entryY=0.891;entryDx=0;entryDy=0;entryPerimeter=0;" edge="1" parent="1" source="2lYjjqfwjOvLe_Hyz_DH-16" target="2lYjjqfwjOvLe_Hyz_DH-3">
          <mxGeometry relative="1" as="geometry">
            <Array as="points">
              <mxPoint x="710" y="540" />
              <mxPoint x="710" y="401" />
            </Array>
          </mxGeometry>
        </mxCell>
        <mxCell id="2lYjjqfwjOvLe_Hyz_DH-21" style="edgeStyle=orthogonalEdgeStyle;rounded=0;orthogonalLoop=1;jettySize=auto;html=1;exitX=1;exitY=0.5;exitDx=0;exitDy=0;entryX=0;entryY=0.25;entryDx=0;entryDy=0;" edge="1" parent="1" source="2lYjjqfwjOvLe_Hyz_DH-20" target="2lYjjqfwjOvLe_Hyz_DH-3">
          <mxGeometry relative="1" as="geometry" />
        </mxCell>
        <mxCell id="2lYjjqfwjOvLe_Hyz_DH-20" value="" style="triangle;whiteSpace=wrap;html=1;" vertex="1" parent="1">
          <mxGeometry x="640" y="330" width="40" height="40" as="geometry" />
        </mxCell>
        <mxCell id="2lYjjqfwjOvLe_Hyz_DH-23" value="" style="endArrow=classic;html=1;rounded=0;entryX=0;entryY=0.25;entryDx=0;entryDy=0;" edge="1" parent="1" target="2lYjjqfwjOvLe_Hyz_DH-2">
          <mxGeometry width="50" height="50" relative="1" as="geometry">
            <mxPoint x="470" y="350" as="sourcePoint" />
            <mxPoint x="510" y="370" as="targetPoint" />
          </mxGeometry>
        </mxCell>
        <mxCell id="2lYjjqfwjOvLe_Hyz_DH-24" value="Cs" style="text;strokeColor=none;fillColor=none;html=1;fontSize=12;fontStyle=1;verticalAlign=middle;align=center;" vertex="1" parent="1">
          <mxGeometry x="32.5" y="490" width="25" height="30" as="geometry" />
        </mxCell>
        <mxCell id="2lYjjqfwjOvLe_Hyz_DH-25" value="Cg" style="text;strokeColor=none;fillColor=none;html=1;fontSize=12;fontStyle=1;verticalAlign=middle;align=center;" vertex="1" parent="1">
          <mxGeometry x="207.5" y="490" width="25" height="30" as="geometry" />
        </mxCell>
        <mxCell id="2lYjjqfwjOvLe_Hyz_DH-27" value="Tsl = 1ns" style="text;strokeColor=none;fillColor=none;html=1;fontSize=12;fontStyle=1;verticalAlign=middle;align=center;" vertex="1" parent="1">
          <mxGeometry x="88.75" y="555" width="62.5" height="30" as="geometry" />
        </mxCell>
        <mxCell id="2lYjjqfwjOvLe_Hyz_DH-28" value="T1 = 0.2ns" style="text;strokeColor=none;fillColor=none;html=1;fontSize=12;fontStyle=1;verticalAlign=middle;align=center;" vertex="1" parent="1">
          <mxGeometry x="408.75" y="420" width="62.5" height="30" as="geometry" />
        </mxCell>
        <mxCell id="2lYjjqfwjOvLe_Hyz_DH-29" value="Tcp = 1.8ns" style="text;strokeColor=none;fillColor=none;html=1;fontSize=12;fontStyle=1;verticalAlign=middle;align=center;" vertex="1" parent="1">
          <mxGeometry x="277.5" y="560" width="62.5" height="30" as="geometry" />
        </mxCell>
        <mxCell id="2lYjjqfwjOvLe_Hyz_DH-30" value="T2 = 0.4ns" style="text;strokeColor=none;fillColor=none;html=1;fontSize=12;fontStyle=1;verticalAlign=middle;align=center;" vertex="1" parent="1">
          <mxGeometry x="497.5" y="560" width="62.5" height="30" as="geometry" />
        </mxCell>
        <mxCell id="2lYjjqfwjOvLe_Hyz_DH-31" value="Tc2q = 0.3ns" style="text;strokeColor=none;fillColor=none;html=1;fontSize=12;fontStyle=1;verticalAlign=middle;align=center;" vertex="1" parent="1">
          <mxGeometry x="510" y="410" width="81.25" height="30" as="geometry" />
        </mxCell>
        <mxCell id="2lYjjqfwjOvLe_Hyz_DH-32" value="Tcd = 1.5ns" style="text;strokeColor=none;fillColor=none;html=1;fontSize=12;fontStyle=1;verticalAlign=middle;align=center;" vertex="1" parent="1">
          <mxGeometry x="610" y="370" width="81.25" height="30" as="geometry" />
        </mxCell>
        <mxCell id="2lYjjqfwjOvLe_Hyz_DH-33" value="Ts = 0.2ns" style="text;strokeColor=none;fillColor=none;html=1;fontSize=12;fontStyle=1;verticalAlign=middle;align=center;" vertex="1" parent="1">
          <mxGeometry x="729.38" y="410" width="81.25" height="30" as="geometry" />
        </mxCell>
      </root>
    </mxGraphModel>
  </diagram>
</mxfile>
